# xmcd
# Copyright (C) 1995-1998 Ti Kan
#
# Track frame offsets:
#       151
#       21910
#       41480
#       63027
#       80820
#       98182
#       118927
#       138705
#       168792
#       184780
#       204100
#       222120
#       243497
#       263437
#       281437
#       302672
#
# Disc length: 4407 seconds
#
# Revision: 0
# Processed by: cddbd v1.5.2PL0 Copyright (c) Steve Scherf et al.
# Submitted via: CD-Transfer v1.0
#
DISCID=da113510
DTITLE=Simple Minds - Simple Minds
DYEAR=1900
DGENRE=
TTITLE0=Waterfront
TTITLE1=Don't You (Forget About Me)
TTITLE2=Alive And Kicking
TTITLE3=Sanctify Yourself
TTITLE4=Love Song
TTITLE5=Someone, Somewhere In Summertime
TTITLE6=See The Lights
TTITLE7=Belfast Child
TTITLE8=American, The
TTITLE9=All The Things She Said
TTITLE10=Promised You A Miracle
TTITLE11=Ghostfdancing
TTITLE12=Speed Your Love To Me
TTITLE13=Glittering Prize
TTITLE14=Let There Be Love
TTITLE15=Mandela Day
EXTD=
EXTT0=
EXTT1=
EXTT2=
EXTT3=
EXTT4=
EXTT5=
EXTT6=
EXTT7=
EXTT8=
EXTT9=
EXTT10=
EXTT11=
EXTT12=
EXTT13=
EXTT14=
EXTT15=
PLAYORDER=
